<mxfile host="app.diagrams.net" modified="2023-09-27T11:28:41.059Z" agent="Mozilla/5.0 (X11; Linux x86_64; rv:109.0) Gecko/20100101 Firefox/117.0" etag="1bK5gGxQBUZZ2TA-A9qr" version="21.8.2" type="github">
  <diagram name="Page-1" id="d9YoNwVLIqMra24sdkIY">
    <mxGraphModel dx="675" dy="369" grid="1" gridSize="10" guides="1" tooltips="1" connect="1" arrows="1" fold="1" page="1" pageScale="1" pageWidth="850" pageHeight="1100" math="0" shadow="0">
      <root>
        <mxCell id="0" />
        <mxCell id="1" parent="0" />
        <mxCell id="Pg5DeNw2jyXxbQDlhv33-3" value="" style="edgeStyle=orthogonalEdgeStyle;rounded=0;orthogonalLoop=1;jettySize=auto;html=1;" edge="1" parent="1" source="Pg5DeNw2jyXxbQDlhv33-1" target="Pg5DeNw2jyXxbQDlhv33-2">
          <mxGeometry relative="1" as="geometry" />
        </mxCell>
        <mxCell id="Pg5DeNw2jyXxbQDlhv33-1" value="&lt;div&gt;Start&lt;/div&gt;" style="ellipse;whiteSpace=wrap;html=1;" vertex="1" parent="1">
          <mxGeometry x="10" y="10" width="100" height="60" as="geometry" />
        </mxCell>
        <mxCell id="Pg5DeNw2jyXxbQDlhv33-7" value="" style="edgeStyle=orthogonalEdgeStyle;rounded=0;orthogonalLoop=1;jettySize=auto;html=1;" edge="1" parent="1" source="Pg5DeNw2jyXxbQDlhv33-2" target="Pg5DeNw2jyXxbQDlhv33-6">
          <mxGeometry relative="1" as="geometry" />
        </mxCell>
        <mxCell id="Pg5DeNw2jyXxbQDlhv33-2" value="Print loading&lt;br&gt;page" style="shape=parallelogram;perimeter=parallelogramPerimeter;whiteSpace=wrap;html=1;fixedSize=1;" vertex="1" parent="1">
          <mxGeometry x="150" y="10" width="120" height="60" as="geometry" />
        </mxCell>
        <mxCell id="Pg5DeNw2jyXxbQDlhv33-9" value="" style="edgeStyle=orthogonalEdgeStyle;rounded=0;orthogonalLoop=1;jettySize=auto;html=1;" edge="1" parent="1" source="Pg5DeNw2jyXxbQDlhv33-6" target="Pg5DeNw2jyXxbQDlhv33-8">
          <mxGeometry relative="1" as="geometry" />
        </mxCell>
        <mxCell id="Pg5DeNw2jyXxbQDlhv33-6" value="Load the program&lt;br&gt;&lt;div&gt;and libraries then clear the console&lt;/div&gt;" style="whiteSpace=wrap;html=1;" vertex="1" parent="1">
          <mxGeometry x="310" y="10" width="120" height="60" as="geometry" />
        </mxCell>
        <mxCell id="Pg5DeNw2jyXxbQDlhv33-11" value="" style="edgeStyle=orthogonalEdgeStyle;rounded=0;orthogonalLoop=1;jettySize=auto;html=1;" edge="1" parent="1" source="Pg5DeNw2jyXxbQDlhv33-8" target="Pg5DeNw2jyXxbQDlhv33-10">
          <mxGeometry relative="1" as="geometry" />
        </mxCell>
        <mxCell id="Pg5DeNw2jyXxbQDlhv33-8" value="Print the logo&lt;br&gt;&lt;div&gt;and moto&lt;/div&gt;" style="shape=parallelogram;perimeter=parallelogramPerimeter;whiteSpace=wrap;html=1;fixedSize=1;" vertex="1" parent="1">
          <mxGeometry x="490" y="10" width="120" height="60" as="geometry" />
        </mxCell>
        <mxCell id="Pg5DeNw2jyXxbQDlhv33-10" value="" style="whiteSpace=wrap;html=1;" vertex="1" parent="1">
          <mxGeometry x="670" y="10" width="120" height="60" as="geometry" />
        </mxCell>
      </root>
    </mxGraphModel>
  </diagram>
</mxfile>
